<?xml version="1.0" encoding="UTF-8"?>
<svg width="1274px" height="1172px" viewBox="0 0 1274 1172" version="1.1" xmlns="http://www.w3.org/2000/svg" xmlns:xlink="http://www.w3.org/1999/xlink">
    <!-- Generator: Sketch 59.1 (86144) - https://sketch.com -->
    <title>Group</title>
    <desc>Created with Sketch.</desc>
    <g id="Page-1" stroke="none" stroke-width="1" fill="none" fill-rule="evenodd">
        <g id="Group">
            <g id="moon-stars-solid" transform="translate(762.000000, 0.000000)" fill="#0F173A" fill-rule="nonzero">
                <path d="M332.2,426.4 C239.1,444.1 153.7,372.7 153.7,278.7 C153.7,224.5 182.7,174.7 229.8,147.9 C237.1,143.8 235.2,132.8 227,131.2 C108.7,109.4 0,200 0,320 C0,426 85.8,512 191.8,512 C251,512 305,485.1 340.8,440.9 C346.1,434.4 340.3,424.8 332.2,426.4 Z M304,96 L320,64 L352,48 L320,32 L304,0 L288,32 L256,48 L288,64 L304,96 Z M458.7,181.3 L432,128 L405.3,181.3 L352,208 L405.3,234.7 L432,288 L458.7,234.7 L512,208 L458.7,181.3 Z" id="Shape"></path>
            </g>
            <g id="campground-solid" transform="translate(0.000000, 440.000000)"></g>
            <path d="M892.125,1080.50033 L856.840312,1080.50033 L514.029844,608.34775 L590.389453,503.194616 C597.809531,492.972388 595.550625,478.661268 585.328359,471.241217 L548.299453,444.377486 C538.077188,436.957435 523.780313,439.216333 516.345937,449.452858 L457.5,530.501548 L398.639766,449.438562 C391.219687,439.216333 376.908516,436.943138 366.68625,444.363189 L329.685937,471.241217 C319.463672,478.661268 317.190469,492.972388 324.624844,503.194616 L400.984453,608.34775 L58.1596875,1080.50033 L22.875,1080.50033 C10.2365625,1080.50033 0,1090.73686 0,1103.37525 L0,1149.12508 C0,1161.76347 10.2365625,1172 22.875,1172 L892.125,1172 C904.763438,1172 915,1161.76347 915,1149.12508 L915,1103.37525 C915,1090.73686 904.763438,1080.50033 892.125,1080.50033 Z M457.5,851.751163 L623.858438,1080.50033 L291.141563,1080.50033 L457.5,851.751163 Z" id="Shape" fill="#224130" fill-rule="nonzero"></path>
        </g>
    </g>
</svg>