<?xml version="1.0" encoding="UTF-8"?>
<svg width="640px" height="512px" viewBox="0 0 640 512" version="1.1" xmlns="http://www.w3.org/2000/svg" xmlns:xlink="http://www.w3.org/1999/xlink">
    <!-- Generator: Sketch 59.1 (86144) - https://sketch.com -->
    <title>trees-duotone</title>
    <desc>Created with Sketch.</desc>
    <g id="Page-1" stroke="none" stroke-width="1" fill="none" fill-rule="evenodd" opacity="0.338006882">
        <g id="trees-duotone" fill-rule="nonzero">
            <path d="M224,440.46 L224,416 L160,416 L160,440.45 L129.71,488.85 C127.234315,493.806044 127.498561,499.690091 130.408524,504.404272 C133.318487,509.118453 138.460025,511.991851 144,512 L240,512 C245.546413,512 250.697453,509.128533 253.612834,504.410138 C256.528215,499.691744 256.79202,493.800068 254.31,488.84 L224,440.46 Z M634.31,378.46 L554.42,288 L585.05,288 C593.919914,288.092592 602.033344,283.016817 605.83,275 C609.635787,267.064113 608.345596,257.623698 602.55,251 L524.42,160 L553.31,160 C562.354415,160.026299 570.550663,154.678699 574.17,146.39 C577.683288,138.235789 576.017215,128.773757 569.93,122.31 L459.66,4.84 C453.66,-1.61 442.38,-1.61 436.34,4.84 L341.28,106.1 C352.37,121.47 355.28,141.4 347.62,159.1 C343.703719,168.17664 337.391601,176.016664 329.36,181.78 L370.9,230.1 C390.451007,253.014181 387.733891,287.436941 364.83,307 C363.496667,308.12 362.13,309.18 360.73,310.18 L402.35,357.33 C411,367.11 415.69,371.46 416,384 L416,440.45 L385.71,488.85 C383.234315,493.806044 383.498561,499.690091 386.408524,504.404272 C389.318487,509.118453 394.460025,511.991851 400,512 L496,512 C501.546413,512 506.697453,509.128533 509.612834,504.410138 C512.528215,499.691744 512.79202,493.800068 510.31,488.84 L480,440.46 L480,416 L616.87,416 C625.844096,416.018693 634.023417,410.857931 637.87,402.75 C641.671178,394.686749 640.268284,385.130522 634.31,378.5 L634.31,378.46 Z" id="Shape" fill="#6DAC89" opacity="0.4"></path>
            <path d="M381.86,402.76 C378.013417,410.867931 369.834096,416.028693 360.86,416.010081 L23.13,416.010081 C14.1544898,416.033608 5.97275569,410.871323 2.13,402.76 C-1.69231092,394.696569 -0.287792529,385.125328 5.69,378.5 L85.58,288 L55,288 C46.0929266,288.1003 37.9489085,282.986342 34.17,274.92 C30.3777779,266.983509 31.6627328,257.552648 37.44,250.92 L115.58,160 L86.69,160 C77.6427892,160.037271 69.4396364,154.691661 65.82,146.4 C62.3012768,138.246425 63.9678931,128.781302 70.06,122.32 L180.34,4.84 C186.34,-1.61 197.66,-1.61 203.66,4.84 L313.93,122.31 C320.017215,128.773757 321.683288,138.235789 318.17,146.39 C314.550663,154.678699 306.354415,160.026299 297.31,160 L268.42,160 L346.55,251 C352.345596,257.623698 353.635787,267.064113 349.83,275 C346.033344,283.016817 337.919914,288.092592 329.05,288 L298.42,288 L378.3,378.5 C384.270162,385.128918 385.673971,394.695323 381.86,402.76 L381.86,402.76 Z" id="Path" fill="#B3E4C9"></path>
        </g>
    </g>
</svg>